<?xml version="1.0" encoding="UTF-8" standalone="no"?>
<svg
   viewBox="0 0 128 128"
   style="display:inline;enable-background:new"
   version="1.0"
   id="svg11300"
   height="128"
   width="128"
   xmlns:xlink="http://www.w3.org/1999/xlink"
   xmlns="http://www.w3.org/2000/svg"
   xmlns:svg="http://www.w3.org/2000/svg"
   xmlns:rdf="http://www.w3.org/1999/02/22-rdf-syntax-ns#"
   xmlns:cc="http://creativecommons.org/ns#"
   xmlns:dc="http://purl.org/dc/elements/1.1/">
  <defs
     id="defs3">
    <linearGradient
       id="linearGradient1427">
      <stop
         id="stop1423"
         offset="0"
         style="stop-color:#c64600;stop-opacity:1" />
      <stop
         style="stop-color:#c64600;stop-opacity:1"
         offset="0.84624046"
         id="stop1431" />
      <stop
         id="stop1433"
         offset="0.9231202"
         style="stop-color:#e66100;stop-opacity:1" />
      <stop
         id="stop1425"
         offset="1"
         style="stop-color:#c64600;stop-opacity:1" />
    </linearGradient>
    <linearGradient
       id="linearGradient7688">
      <stop
         id="stop7684"
         offset="0"
         style="stop-color:#1a5fb4;stop-opacity:1" />
      <stop
         style="stop-color:#1c71d8;stop-opacity:1"
         offset="0.1875"
         id="stop3222" />
      <stop
         style="stop-color:#1a5fb4;stop-opacity:1"
         offset="0.375"
         id="stop1435" />
      <stop
         id="stop7686"
         offset="1"
         style="stop-color:#1a5fb4;stop-opacity:1" />
    </linearGradient>
    <linearGradient
       y2="64"
       x2="116"
       y1="64"
       x1="12"
       gradientUnits="userSpaceOnUse"
       id="linearGradient888"
       xlink:href="#linearGradient7688" />
    <linearGradient
       y2="112"
       x2="116"
       y1="112"
       x1="63.970703"
       gradientTransform="matrix(1,0,0,0.99997115,5e-7,0.00335)"
       gradientUnits="userSpaceOnUse"
       id="linearGradient890"
       xlink:href="#linearGradient1427" />
  </defs>
  <g
     transform="translate(0,-172)"
     style="display:inline"
     id="layer1">
    <g
       style="display:inline"
       id="layer9">
      <rect
         ry="39"
         y="184"
         x="12"
         height="100"
         width="104"
         id="rect930"
         style="opacity:1;fill:#3584e4;fill-opacity:1;stroke:none;stroke-width:0.1;stroke-miterlimit:4;stroke-dasharray:none;stroke-opacity:1" />
      <path
         transform="translate(0,172)"
         id="path878"
         d="M 12 74.523438 L 12 77 L 12 78.523438 L 12.039062 78.523438 C 12.834855 99.416938 29.90482 116 51 116 L 58.890625 116 L 77 116 L 63.970703 115.99609 L 63.970703 112 L 58.890625 112 L 51 112 C 29.90482 112 12.834865 95.416938 12.039062 74.523438 L 12 74.523438 z "
         style="opacity:1;fill:url(#linearGradient888);fill-opacity:1;stroke:none;stroke-width:5;stroke-miterlimit:4;stroke-dasharray:none;stroke-opacity:1" />
      <path
         transform="translate(0,172)"
         id="path880"
         d="M 116 104 C 116 108.432 112.432 112 108 112 L 77 112 L 63.970703 112 L 63.970703 115.99609 L 77 116 L 108 116 C 112.432 116 116 112.43187 116 108 L 116 104 z "
         style="display:inline;fill:url(#linearGradient890);fill-opacity:1;stroke-width:0.99998552;enable-background:new" />
      <path
         id="path884"
         d="m 20,184 c -4.431999,0 -8,3.568 -8,8 v 31 6.32422 c 2.41723,6.19473 5.90014,11.98333 10.60742,17.05078 5.5033,5.92436 13.680291,10.87906 22.14258,12.7168 8.46229,1.83772 17.20734,0.56105 23.85938,-5.97266 2.27839,-2.23785 4.19951,-5.55421 4.876951,-8.95117 0.67743,-3.39695 0.11237,-6.87287 -2.574221,-9.44531 -0.85264,-0.81642 -2.11333,-1.51151 -3.39258,-1.74219 -1.27138,-0.22927 -2.55726,0 -3.48242,1.01953 1.03228,0.938 1.264401,2.24323 1.033201,3.52539 -0.23278,1.29085 -0.93222,2.5617 -1.75586,3.42188 -2.5856,2.70033 -6.08357,3.26568 -9.49218,2.58593 -3.4086,-0.67976 -6.73127,-2.60464 -8.97657,-4.89062 -4.91008,-4.99899 -6.85572,-11.17831 -6.74609,-17.53125 0.0365,-2.11766 0.30166,-4.25456 0.76172,-6.37305 1.84027,-8.47398 6.7982,-16.65732 12.73047,-22.16797 3.78778,-3.51857 7.97986,-6.34942 12.439449,-8.57031 z"
         style="opacity:1;fill:#ff9632;fill-opacity:1;stroke:none;stroke-width:0;stroke-miterlimit:4;stroke-dasharray:none;stroke-opacity:1" />
      <path
         id="path886"
         d="m 76.88867,208.14844 c -6.34194,-0.1105 -12.50901,1.83213 -17.49804,6.73242 -2.27839,2.23785 -4.19756,5.55616 -4.875,8.95312 -0.67743,3.39695 -0.11238,6.87288 2.57421,9.44532 0.85264,0.81642 2.11334,1.5115 3.39258,1.74218 1.271831,0.22934 2.55719,-0.001 3.48242,-1.02148 -1.03233,-0.9379 -1.26438,-2.24332 -1.0332,-3.52539 0.23276,-1.29075 0.93228,-2.56176 1.75586,-3.42188 2.58548,-2.70021 6.08367,-3.26566 9.49219,-2.58593 3.4085,0.67974 6.72937,2.60471 8.97461,4.89062 4.91001,4.99893 6.85768,11.1784 6.74804,17.53125 -0.0365,2.11761 -0.30165,4.25458 -0.76171,6.37305 -1.84025,8.47387 -6.79827,16.65738 -12.73047,22.16797 C 72.622341,278.9483 68.4305,281.7791 63.970701,284 H 77 108 c 4.432,0 8,-3.568 8,-8 v -27 -10.32422 c -2.41743,-6.19474 -5.90013,-11.98333 -10.60742,-17.05078 -5.503319,-5.92436 -13.678339,-10.8771 -22.140629,-12.71484 -2.115581,-0.45943 -4.24931,-0.72488 -6.363281,-0.76172 z"
         style="opacity:1;fill:#ff9632;fill-opacity:1;stroke:none;stroke-width:0;stroke-miterlimit:4;stroke-dasharray:none;stroke-opacity:1" />
    </g>
  </g>
  <g
     fill="none"
     fill-rule="evenodd"
     id="g5"
     transform="matrix(0.2722688,0,0,0.2722688,54.068557,53.30359)"
     style="stroke-width:3.67284">
    <circle
       fill="#2b2e3a"
       cx="128"
       cy="128"
       r="128"
       id="circle1"
       style="stroke-width:3.67284" />
    <g
       fill="#9feaf9"
       fill-rule="nonzero"
       id="g4"
       style="stroke-width:3.67284">
      <path
         d="M 100.502,71.69 C 74.497,66.954 53.935,71.911 45.74,86.105 c -6.115,10.592 -4.367,24.635 4.24,39.646 a 2.667,2.667 0 1 0 4.626,-2.653 C 46.854,109.576 45.345,97.457 50.359,88.772 57.167,76.981 75.507,72.559 99.546,76.937 a 2.667,2.667 0 0 0 0.956,-5.247 z m -36.999,72.307 c 10.515,11.555 24.176,22.394 39.756,31.388 37.723,21.78 77.883,27.601 97.675,14.106 a 2.667,2.667 0 1 0 -3.005,-4.406 c -17.714,12.078 -55.862,6.548 -92.003,-14.318 -15.114,-8.726 -28.343,-19.222 -38.478,-30.36 a 2.667,2.667 0 1 0 -3.945,3.59 z"
         id="path1"
         style="stroke-width:3.67284" />
      <path
         d="M 194.62,140.753 C 211.648,120.637 217.593,100.405 209.415,86.241 203.398,75.818 190.677,70.315 173.77,70.095 a 2.667,2.667 0 0 0 -0.069,5.333 c 15.205,0.198 26.165,4.939 31.096,13.48 6.792,11.765 1.49,29.807 -14.248,48.399 a 2.667,2.667 0 1 0 4.071,3.446 z M 150.859,72.578 c -15.396,3.299 -31.784,9.749 -47.522,18.835 -38.942,22.483 -64.345,55.636 -60.817,79.675 a 2.667,2.667 0 1 0 5.277,-0.775 c -3.133,-21.344 20.947,-52.769 58.207,-74.281 15.267,-8.815 31.135,-15.06 45.972,-18.239 a 2.667,2.667 0 1 0 -1.117,-5.215 z"
         id="path2"
         style="stroke-width:3.67284" />
      <path
         d="m 87.77,187.753 c 8.904,24.86 23.469,40.167 39.847,40.167 11.945,0 22.996,-8.143 31.614,-22.478 a 2.667,2.667 0 1 0 -4.571,-2.748 c -7.745,12.883 -17.258,19.892 -27.043,19.892 -13.605,0 -26.596,-13.652 -34.825,-36.63 a 2.667,2.667 0 1 0 -5.021,1.797 z m 81.322,-4.863 c 4.61,-14.728 7.085,-31.718 7.085,-49.423 0,-44.179 -15.463,-82.263 -37.487,-92.042 a 2.667,2.667 0 0 0 -2.164,4.874 c 19.643,8.723 34.317,44.866 34.317,87.168 0,17.177 -2.397,33.63 -6.84,47.83 a 2.667,2.667 0 1 0 5.09,1.593 z m 50.224,-2.612 c 0,-7.049 -5.714,-12.763 -12.763,-12.763 -7.049,0 -12.763,5.714 -12.763,12.763 0,7.049 5.714,12.763 12.763,12.763 7.049,0 12.763,-5.714 12.763,-12.763 z m -5.333,0 a 7.43,7.43 0 1 1 -14.86,0 7.43,7.43 0 0 1 14.86,0 z M 48.497,193.041 c 7.05,0 12.764,-5.714 12.764,-12.763 0,-7.049 -5.715,-12.763 -12.764,-12.763 -7.048,0 -12.763,5.714 -12.763,12.763 0,7.049 5.715,12.763 12.763,12.763 z m 0,-5.333 a 7.43,7.43 0 1 1 0,-14.86 7.43,7.43 0 0 1 0,14.86 z"
         id="path3"
         style="stroke-width:3.67284" />
      <path
         d="m 127.617,54.444 c 7.049,0 12.763,-5.714 12.763,-12.763 0,-7.049 -5.714,-12.763 -12.763,-12.763 -7.049,0 -12.763,5.714 -12.763,12.763 0,7.049 5.714,12.763 12.763,12.763 z m 0,-5.333 a 7.43,7.43 0 1 1 0,-14.86 7.43,7.43 0 0 1 0,14.86 z m 1.949,93.382 c -4.985,1.077 -9.896,-2.091 -10.975,-7.076 a 9.236,9.236 0 0 1 7.076,-10.976 c 4.985,-1.077 9.896,2.091 10.976,7.076 1.077,4.985 -2.091,9.897 -7.077,10.976 z"
         id="path4"
         style="stroke-width:3.67284" />
    </g>
  </g>
</svg>
